# AST/ASF file generated using VICON BodyLanguage
# -----------------------------------------------
:version 1.10
:name VICON
:units
  mass 1.0
  length 0.45
  angle deg
:documentation
   .ast/.asf automatically generated from VICON data using
   VICON BodyBuilder and BodyLanguage model FoxedUp or BRILLIANT.MOD
:root
   order TX TY TZ RX RY RZ
   axis XYZ
   position 0 0 0  
   orientation 0 0 0 
:bonedata
  begin
     id 1 
     name lhipjoint
     direction 0.535335 -0.74333 0.401095 
     length 2.04549 
     axis 0 0 0  XYZ
  end
  begin
     id 2 
     name lfemur
     direction 0.34202 -0.939693 0  
     length 6.95643  
     axis 0 0 20  XYZ
    dof rx ry rz
    limits (-160.0 20.0)
           (-70.0 70.0)
           (-60.0 70.0)
  end
  begin
     id 3 
     name ltibia
     direction 0.34192 -0.939729 0   
     length 5.55969   
     axis 0 0 20   XYZ
    dof rx
    limits (-10.0 170.0)
  end
  begin
     id 4 
     name lfoot
     direction 0.216943 -0.596046 0.773088   
     length 2.27918   
     axis -90 7.62852e-016 20   XYZ
    dof rx rz
    limits (-45.0 90.0)
           (-70.0 20.0)
  end
  begin
     id 5 
     name ltoes
     direction 1.53519e-011 -4.21748e-011 1   
     length 1.05562   
     axis -90 7.62852e-016 20   XYZ
    dof rx
    limits (-90.0 20.0)
  end
  begin
     id 6 
     name rhipjoint
     direction -0.576368 -0.719173 0.38806   
     length 2.1142  
     axis 0 0 0  XYZ 
  end
  begin
     id 7 
     name rfemur
     direction -0.34202 -0.939693 0   
     length 7.07928   
     axis 0 0 -20   XYZ
    dof rx ry rz
    limits (-160.0 20.0)
           (-70.0 70.0)
           (-70.0 60.0)
  end
  begin
     id 8 
     name rtibia
     direction -0.34202 -0.939693 0   
     length 5.79974   
     axis 0 0 -20   XYZ
    dof rx
    limits (-10.0 170.0)
 end
 begin
     id 9 
     name rfoot
     direction -0.189288 -0.520065 0.832888   
     length 2.42173  
     axis -90 -7.62852e-016 -20   XYZ
    dof rx rz
    limits (-45.0 90.0)
           (-20.0 70.0)
  end
  begin
     id 10 
     name rtoes
     direction -1.53574e-011 -4.21658e-011 1   
     length 1.14469   
     axis -90 -7.62852e-016 -20   XYZ
    dof rx
    limits (-90.0 20.0)
  end
  begin
     id 11 
     name lowerback
     direction -0.00135702 0.993803 0.111144   
     length 1.91308   
     axis 0 0 0   XYZ
    dof rx ry rz
    limits (-20.0 45.0)
           (-30.0 30.0)
           (-30.0 30.0)
  end
  begin
     id 12 
     name upperback
     direction -0.0056745 0.999813 0.0184631   
     length 1.9212   
     axis 0 0 0   XYZ
    dof rx ry rz
    limits (-20.0 45.0)
           (-30.0 30.0)
           (-30.0 30.0)
  end
  begin
     id 13 
     name thorax
     direction -0.00733434 0.999426 -0.0330788   
     length 1.94196   
     axis 0 0 0   XYZ
    dof rx ry rz
    limits (-20.0 45.0)
           (-30.0 30.0)
           (-30.0 30.0)
  end
  begin
     id 14 
     name lowerneck
     direction 0.0563074 0.996944 -0.0541571   
     length 2.34257   
     axis 0 0 0   XYZ
    dof rx ry rz
    limits (-20.0 45.0)
           (-30.0 30.0)
           (-30.0 30.0)
  end
  begin
     id 15 
     name upperneck
     direction -0.0544519 0.976166 -0.210085   
     length 2.32506   
     axis 0 0 0   XYZ
    dof rx ry rz
    limits (-20.0 45.0)
           (-30.0 30.0)
           (-30.0 30.0)
  end
  begin
     id 16
     name head
     direction -0.0226035 0.997615 -0.0652205  
     length 2.3648  
     axis 0 0 0   XYZ
    dof rx ry rz
    limits (-20.0 45.0)
           (-30.0 30.0)
           (-30.0 30.0)
  end
  begin
     id 17 
     name lclavicle
     direction 0.92109 0.381297 -0.0787716  
     length 4.0487  
     axis 0 0 0   XYZ
    dof ry rz
    limits (-20.0 10.0)
           (0.0 20.0)
  end
  begin
     id 18 
     name lhumerus
     direction 1 -4.48986e-011 3.56724e-027   
     length 4.94991   
     axis 180 -30 -90   XYZ
    dof rx ry rz
    limits (-60.0 90.0)
           (-90.0 90.0)
           (-90.0 90.0)
  end
  begin
     id 19
     name lradius
     direction 1 -4.48981e-011 8.62147e-027   
     length 2.7606   
     axis 180 -30 -90   XYZ
    dof rx
    limits (-10.0 170.0)
  end
  begin
     id 20
     name lwrist
     direction 1 -4.48989e-011 1.59799e-026   
     length 1.3803   
     axis -1.17785e-014 90 90   XYZ
    dof ry
    limits (-180.0 0.0)
 end
  begin
     id 21 
     name lhand
     direction 1 -4.48896e-011 3.19599e-026   
     length 0.843936   
     axis -2.03931e-014 90 90   XYZ
    dof rx rz
    limits (-90.0 90.0)
           (-45.0 45.0)
  end
  begin
     id 22 
     name lfingers
     direction 1 -4.48887e-011 6.39197e-026   
     length 0.680403   
     axis -4.07862e-014 90 90   XYZ
    dof rx
    limits (0.0 90.0)
  end
  begin
     id 23
     name lthumb
     direction 0.707107 -6.348e-011 0.707107   
     length 0.976926   
     axis -90 45 2.85299e-015   XYZ
    dof rx rz
    limits (-45.0 45.0)
           (-45.0 45.0)
  end
  begin
     id 24 
     name rclavicle
     direction -0.951104 0.307692 -0.026953   
     length 4.21801  
     axis 0 0 0   XYZ 
    dof ry rz
    limits (-10.0 20.0)
           (-20.0 0.0)
  end
  begin
     id 25 
     name rhumerus
     direction -1 -4.4896e-011 -1.8171e-018  
     length 4.32982   
     axis 180 30 90   XYZ
    dof rx ry rz
    limits (-90.0 60.0)
           (-90.0 90.0)
           (-90.0 90.0)
  end
  begin
     id 26 
     name rradius
     direction -1 -4.48959e-011 8.25165e-027   
     length 3.20057   
     axis 180 30 90   XYZ
    dof rx
    limits (-10.0 170.0)
  end
  begin
     id 27 
     name rwrist
     direction -1 -4.48997e-011 1.59799e-026   
     length 1.60029   
     axis -1.17785e-014 -90 -90   XYZ
    dof ry
    limits (-180.0 0.0)
  end
  begin
     id 28
     name rhand
     direction -1 -4.49023e-011 3.19599e-026   
     length 0.960433   
     axis -2.03931e-014 -90 -90   XYZ
    dof rx rz
    limits (-90.0 90.0)
           (-45.0 45.0)
  end
  begin
     id 29
     name rfingers
     direction -1 -4.48802e-011 6.39197e-026   
     length 0.774326   
     axis -4.07862e-014 -90 -90   XYZ
    dof rx
    limits (0.0 90.0)
  end
  begin
     id 30
     name rthumb
     direction -0.707107 -6.34876e-011 0.707107   
     length 1.11178   
     axis -90 -45 -2.85299e-015   XYZ
    dof rx rz
    limits (-45.0 45.0)
           (-45.0 45.0)
  end
:hierarchy
  begin
    root lhipjoint rhipjoint lowerback
    lhipjoint lfemur
    lfemur ltibia
    ltibia lfoot
    lfoot ltoes
    rhipjoint rfemur
    rfemur rtibia
    rtibia rfoot
    rfoot rtoes
    lowerback upperback
    upperback thorax
    thorax lowerneck lclavicle rclavicle
    lowerneck upperneck
    upperneck head
    lclavicle lhumerus
    lhumerus lradius
    lradius lwrist
    lwrist lhand lthumb
    lhand lfingers
    rclavicle rhumerus
    rhumerus rradius
    rradius rwrist
    rwrist rhand rthumb
    rhand rfingers
end

#!OML:ASF C:\KaitlinTest1\Natural Motions\Nikki\Session 2\Nikki.ASF
:FULLY-SPECIFIED
:DEGREES
399
root -18.8823 16.6316 5.06499 -154.887 85.8824 -164.767
lowerback -13.3669 -1.65986 -0.0831305
upperback -4.05989 -1.97945 -0.527502
thorax 3.20366 -0.904765 -0.812034
lowerneck -1.78525 1.57455 8.4666
upperneck 27.3788 3.825 -5.53416
head 9.0946 2.54033 -2.98965
rclavicle 8.02593e-015 1.23246e-014
rhumerus -42.628 -22.1547 -79.218
rradius 18.4729
rwrist 29.0173
rhand -35.9488 3.16495
rfingers 7.12502
rthumb -9.06037 -26.6205
lclavicle 8.02593e-015 1.23246e-014
lhumerus -42.4337 16.143 80.4052
lradius 24.0964
lwrist -39.7419
lhand -32.667 3.63949
lfingers 7.12502
lthumb -5.8927 33.5376
rfemur -7.82086 -16.7842 20.985
rtibia 11.4137
rfoot -10.8014 12.0447
rtoes 1.66979e-014
lfemur -9.76442 12.0823 -17.9314
ltibia 9.44134
lfoot -1.92134 -16.7403
ltoes 2.06736e-014
400
root -18.8813 16.6307 5.06502 -155.075 85.8955 -164.939
lowerback -13.3767 -1.65513 -0.0926091
upperback -4.04151 -1.97196 -0.541926
thorax 3.22812 -0.901289 -0.821195
lowerneck -1.80372 1.57376 8.47345
upperneck 27.3868 3.8219 -5.5352
head 9.1008 2.53912 -2.99139
rclavicle 2.05245e-014 3.97569e-016
rhumerus -42.6073 -22.1516 -79.259
rradius 18.4891
rwrist 29.0233
rhand -35.9218 3.05171
rfingers 7.12502
rthumb -9.03433 -26.7348
lclavicle 2.05245e-014 3.97569e-016
lhumerus -42.2849 15.0362 81.1097
lradius 24.1461
lwrist -38.4421
lhand -32.7627 3.9502
lfingers 7.12502
lthumb -5.98513 33.8457
rfemur -7.79434 -16.7841 20.9639
rtibia 11.4022
rfoot -10.7976 12.0502
rtoes 3.4191e-014
lfemur -9.73287 12.0883 -17.9453
ltibia 9.46074
lfoot -1.97496 -16.7273
ltoes 1.74931e-014
401
root -18.8812 16.631 5.06598 -154.929 85.8776 -164.811
lowerback -13.3902 -1.65719 -0.0878793
upperback -4.05127 -1.97467 -0.540011
thorax 3.22508 -0.902349 -0.822497
lowerneck -1.80905 1.56574 8.49602
upperneck 27.4027 3.81561 -5.55984
head 9.10766 2.53663 -3.00456
rclavicle 3.45388e-015 1.27222e-014
rhumerus -42.6317 -22.1567 -79.2614
rradius 18.5037
rwrist 28.9965
rhand -35.9175 3.07263
rfingers 7.12502
rthumb -9.03017 -26.7141
lclavicle 3.45388e-015 1.27222e-014
lhumerus -42.2882 15.0666 81.0789
lradius 24.123
lwrist -38.4673
lhand -32.8013 3.92755
lfingers 7.12502
lthumb -6.02241 33.822
rfemur -7.80478 -16.764 20.9907
rtibia 11.3844
rfoot -10.7861 12.02
rtoes -1.11319e-014
lfemur -9.77754 12.0776 -17.9275
ltibia 9.4784
lfoot -1.94946 -16.7385
ltoes 1.90833e-014
402
root -18.8802 16.6298 5.06601 -154.966 85.8898 -164.827
lowerback -13.3674 -1.65122 -0.0947314
upperback -4.05374 -1.96631 -0.537214
thorax 3.21057 -0.898349 -0.813686
lowerneck -1.78642 1.56104 8.45792
upperneck 27.3891 3.80857 -5.53623
head 9.09686 2.53205 -2.99036
rclavicle 7.72775e-015 7.15625e-015
rhumerus -42.6428 -22.1079 -79.2796
rradius 18.5151
rwrist 28.9146
rhand -35.9252 3.05881
rfingers 7.12502
rthumb -9.03762 -26.7276
lclavicle 7.72775e-015 7.15625e-015
lhumerus -42.4566 16.1246 80.4242
lradius 24.124
lwrist -39.6469
lhand -32.766 3.6784
lfingers 7.12502
lthumb -5.98828 33.5738
rfemur -7.7762 -16.7655 20.9754
rtibia 11.3944
rfoot -10.8312 12.0415
rtoes 3.33958e-014
lfemur -9.72204 12.0883 -17.9238
ltibia 9.46732
lfoot -2.00015 -16.725
ltoes 4.77083e-014
403
root -18.8793 16.6303 5.06553 -154.956 85.8843 -164.804
lowerback -13.3603 -1.65326 -0.0773496
upperback -4.04359 -1.97125 -0.551307
thorax 3.21617 -0.901024 -0.838928
lowerneck -1.81635 1.56396 8.50073
upperneck 27.4077 3.81171 -5.55822
head 9.11057 2.53534 -3.00514
rclavicle 3.00413e-014 1.51076e-014
rhumerus -42.6214 -22.1232 -79.3119
rradius 18.5036
rwrist 28.9224
rhand -35.9206 3.02635
rfingers 7.12502
rthumb -9.03317 -26.7602
lclavicle 3.00413e-014 1.51076e-014
lhumerus -42.4372 16.1056 80.4251
lradius 24.122
lwrist -39.5229
lhand -32.8229 3.65301
lfingers 7.12502
lthumb -6.04326 33.5468
rfemur -7.75805 -16.7675 20.9756
rtibia 11.394
rfoot -10.8444 12.0271
rtoes 2.3059e-014
lfemur -9.71975 12.0836 -17.9174
ltibia 9.46807
lfoot -1.97937 -16.7383
ltoes 1.59028e-014
404
root -18.879 16.6304 5.06571 -154.892 85.8839 -164.778
lowerback -13.3805 -1.66292 -0.0885049
upperback -4.06496 -1.98199 -0.533871
thorax 3.20565 -0.905837 -0.816351
lowerneck -1.78645 1.56696 8.47706
upperneck 27.3842 3.82548 -5.58075
head 9.0974 2.53746 -3.00778
rclavicle 1.38155e-014 6.75868e-015
rhumerus -42.6237 -22.0829 -79.2909
rradius 18.4756
rwrist 28.9249
rhand -35.9289 3.08782
rfingers 7.12502
rthumb -9.04119 -26.6984
lclavicle 1.38155e-014 6.75868e-015
lhumerus -42.3076 14.9983 81.1399
lradius 24.0662
lwrist -38.4475
lhand -33.04 3.964
lfingers 7.12502
lthumb -6.25279 33.8517
rfemur -7.79759 -16.7825 20.9876
rtibia 11.3947
rfoot -10.8045 12.0468
rtoes -3.02153e-014
lfemur -9.74754 12.0867 -17.9156
ltibia 9.47009
lfoot -1.99644 -16.7349
ltoes -1.90833e-014
405
root -18.8794 16.6305 5.06673 -155.21 85.8706 -165.094
lowerback -13.3636 -1.67264 -0.110999
upperback -4.07037 -1.99118 -0.547954
thorax 3.191 -0.910417 -0.819212
lowerneck -1.81743 1.56582 8.47395
upperneck 27.4366 3.8216 -5.56154
head 9.1212 2.53816 -3.00106
rclavicle 8.49804e-015 1.11319e-014
rhumerus -42.6263 -22.0314 -79.3582
rradius 18.5144
rwrist 28.8138
rhand -35.9001 3.04935
rfingers 7.12502
rthumb -9.01337 -26.7381
lclavicle 8.49804e-015 1.11319e-014
lhumerus -42.4942 16.2838 80.2878
lradius 24.058
lwrist -39.9862
lhand -32.9053 3.69005
lfingers 7.12502
lthumb -6.12283 33.5816
rfemur -7.79114 -16.7565 20.9747
rtibia 11.397
rfoot -10.8225 12.0002
rtoes -5.08889e-014
lfemur -9.75077 12.066 -17.9248
ltibia 9.46152
lfoot -1.96507 -16.738
ltoes -5.725e-014
406
root -18.8767 16.6301 5.06571 -154.908 85.8758 -164.797
lowerback -13.3876 -1.66778 -0.0870639
upperback -4.0799 -1.98758 -0.537275
thorax 3.19358 -0.908299 -0.82151
lowerneck -1.77255 1.56728 8.42229
upperneck 27.4086 3.82015 -5.51542
head 9.1011 2.53708 -2.9762
rclavicle -3.97569e-015 -2.78299e-015
rhumerus -42.6734 -22.1183 -79.2545
rradius 18.4836
rwrist 28.9712
rhand -35.9161 3.09479
rfingers 7.12502
rthumb -9.02882 -26.692
lclavicle -3.97569e-015 -2.78299e-015
lhumerus -42.5441 16.4617 80.1697
lradius 24.0262
lwrist -40.3558
lhand -32.8445 3.69766
lfingers 7.12502
lthumb -6.06406 33.5909
rfemur -7.79492 -16.8704 20.9912
rtibia 11.4016
rfoot -10.8541 12.1255
rtoes -1.43125e-014
lfemur -9.73677 12.0795 -17.9108
ltibia 9.45689
lfoot -1.98584 -16.723
ltoes -9.54166e-015
407
root -18.8757 16.6301 5.06633 -154.926 85.9089 -164.828
lowerback -13.4296 -1.65515 -0.10073
upperback -4.07283 -1.96827 -0.546313
thorax 3.22414 -0.898539 -0.821559
lowerneck -1.79874 1.55985 8.44437
upperneck 27.4178 3.81438 -5.55272
head 9.10961 2.53261 -2.99345
rclavicle 1.69215e-014 4.77083e-015
rhumerus -42.667 -22.1579 -79.2358
rradius 18.4441
rwrist 29.014
rhand -35.96 3.16132
rfingers 7.12502
rthumb -9.07123 -26.6236
lclavicle 1.69215e-014 4.77083e-015
lhumerus -42.4762 16.3329 80.2856
lradius 24.052
lwrist -39.7943
lhand -32.7587 3.65365
lfingers 7.12502
lthumb -5.98122 33.5492
rfemur -7.80712 -16.8019 20.9787
rtibia 11.3875
rfoot -10.8107 12.0922
rtoes 1.43125e-014
lfemur -9.75141 12.1082 -17.934
ltibia 9.47279
lfoot -1.99732 -16.7351
ltoes 1.74931e-014
408
root -18.8768 16.6304 5.06657 -154.897 85.8572 -164.81
lowerback -13.4341 -1.66755 -0.0783265
upperback -4.07016 -1.9878 -0.541891
thorax 3.2285 -0.908193 -0.832841
lowerneck -1.7843 1.55989 8.40772
upperneck 27.3897 3.81137 -5.53083
head 9.09561 2.52894 -2.97957
rclavicle -1.02126e-014 -1.98785e-015
rhumerus -42.6702 -22.2449 -79.1933
rradius 18.4454
rwrist 29.095
rhand -35.9276 3.12777
rfingers 7.12502
rthumb -9.03989 -26.6585
lclavicle -1.02126e-014 -1.98785e-015
lhumerus -42.4979 16.4171 80.2084
lradius 24.0129
lwrist -40.2324
lhand -32.8523 3.68743
lfingers 7.12502
lthumb -6.0716 33.5804
rfemur -7.81311 -16.8541 21.0106
rtibia 11.3785
rfoot -10.8175 12.0901
rtoes -4.77083e-015
lfemur -9.77894 12.0634 -17.9081
ltibia 9.48079
lfoot -2.00984 -16.7559
ltoes -2.38542e-014
409
root -18.8761 16.6299 5.06777 -154.688 85.8454 -164.586
lowerback -13.4188 -1.66548 -0.0723024
upperback -4.07162 -1.98616 -0.539513
thorax 3.21857 -0.907462 -0.83301
lowerneck -1.77033 1.5599 8.41926
upperneck 27.3762 3.81006 -5.52915
head 9.0884 2.52962 -2.98108
rclavicle 5.06901e-015 -1.59028e-015
rhumerus -42.69 -22.2618 -79.1782
rradius 18.4354
rwrist 29.1172
rhand -35.9552 3.16131
rfingers 7.12502
rthumb -9.0666 -26.6238
lclavicle 5.06901e-015 -1.59028e-015
lhumerus -42.491 16.4054 80.2037
lradius 24.0016
lwrist -40.1735
lhand -32.8003 3.65999
lfingers 7.12502
lthumb -6.02143 33.5544
rfemur -7.7845 -16.7935 21.0295
rtibia 11.3695
rfoot -10.8416 12.0339
rtoes -3.81667e-014
lfemur -9.7667 12.0605 -17.8765
ltibia 9.49732
lfoot -1.9978 -16.7373
ltoes -3.97569e-014
410
root -18.8788 16.6305 5.06835 -155.078 85.7989 -164.998
lowerback -13.3628 -1.69446 -0.0976292
upperback -4.1128 -2.0203 -0.533947
thorax 3.14584 -0.924093 -0.815865
lowerneck -1.76187 1.56214 8.41856
upperneck 27.4075 3.82277 -5.54633
head 9.0991 2.53553 -2.98622
rclavicle 2.50966e-015 1.59028e-015
rhumerus -42.742 -22.2461 -79.1505
rradius 18.4421
rwrist 29.1292
rhand -35.96 3.18931
rfingers 7.12502
rthumb -9.07119 -26.5956
lclavicle 2.50966e-015 1.59028e-015
lhumerus -42.5433 16.5005 80.1172
lradius 23.9055
lwrist -40.4804
lhand -32.9551 3.6138
lfingers 7.12502
lthumb -6.17088 33.5039
rfemur -7.79712 -16.756 21.026
rtibia 11.344
rfoot -10.7963 11.9449
rtoes 1.19271e-014
lfemur -9.82228 12.0072 -17.8853
ltibia 9.52596
lfoot -1.99863 -16.7353
ltoes 1.11319e-014
411
root -18.8768 16.6302 5.0683 -155.085 85.8352 -164.997
lowerback -13.4153 -1.6815 -0.11106
upperback -4.0823 -2.00183 -0.536565
thorax 3.20677 -0.915059 -0.810289
lowerneck -1.76716 1.56099 8.40102
upperneck 27.3689 3.81743 -5.54599
head 9.08553 2.52953 -2.98315
rclavicle -6.23687e-015 -7.55382e-015
rhumerus -42.6871 -22.2552 -79.1712
rradius 18.4256
rwrist 29.1131
rhand -35.9411 3.12162
rfingers 7.12502
rthumb -9.05293 -26.6641
lclavicle -6.23687e-015 -7.55382e-015
lhumerus -42.4976 16.4736 80.1646
lradius 23.9625
lwrist -40.2943
lhand -32.803 3.60926
lfingers 7.12502
lthumb -6.02406 33.5036
rfemur -7.78233 -16.8313 21.0167
rtibia 11.3294
rfoot -10.8349 12.0418
rtoes -6.75868e-014
lfemur -9.81235 12.039 -17.9031
ltibia 9.54683
lfoot -2.02468 -16.7289
ltoes -5.08889e-014
